<svg xmlns="http://www.w3.org/2000/svg" id="Layer_1" data-name="Layer 1" viewBox="0 0 520.28 190.84"><defs><style>.cls-1{fill:#204667;}.cls-2{fill:#31b0cd;}</style></defs><title>timelycare-logo-RGB-2-color</title><path class="cls-1" d="M97,166.19v12.87H59.8V166.19Zm-28.75-14.8H85.37V209a7.68,7.68,0,0,0,.72,3.68,4,4,0,0,0,2,1.83,8.13,8.13,0,0,0,3,.52,13.36,13.36,0,0,0,2.41-.22l1.85-.34,2.69,12.75q-1.29.4-3.62.94a30.27,30.27,0,0,1-5.67.66A25.88,25.88,0,0,1,78,227.16a15.14,15.14,0,0,1-7.22-5.87,18,18,0,0,1-2.53-10.05Z" transform="translate(-59.8 -60.29)"></path><path class="cls-1" d="M114.48,158.23a9.2,9.2,0,0,1-6.54-2.55,8.24,8.24,0,0,1,0-12.23,9.64,9.64,0,0,1,13.07,0,8.24,8.24,0,0,1,0,12.23A9.2,9.2,0,0,1,114.48,158.23ZM105.87,228V166.19H123V228Z" transform="translate(-59.8 -60.29)"></path><path class="cls-1" d="M132.15,228V166.19h16.33v10.9h.72a17.14,17.14,0,0,1,6.43-8.57,20.1,20.1,0,0,1,21.6,0,15.05,15.05,0,0,1,6,8.55h.64a16.5,16.5,0,0,1,6.86-8.51,21.25,21.25,0,0,1,11.76-3.2q8.65,0,14.06,5.49t5.41,15.54V228H204.82V189.8q0-5.15-2.73-7.72a9.59,9.59,0,0,0-6.84-2.57,9.21,9.21,0,0,0-7.28,3,11.31,11.31,0,0,0-2.61,7.78V228H168.74V189.44a10,10,0,0,0-2.59-7.24,9,9,0,0,0-6.82-2.69,9.44,9.44,0,0,0-5.13,1.43,10.07,10.07,0,0,0-3.6,4,12.78,12.78,0,0,0-1.33,6V228Z" transform="translate(-59.8 -60.29)"></path><path class="cls-1" d="M257.91,229.17a32.75,32.75,0,0,1-16.39-3.88,26.25,26.25,0,0,1-10.56-11,40.08,40.08,0,0,1,0-33.64,27.31,27.31,0,0,1,10.44-11.22,30.29,30.29,0,0,1,15.83-4,32.71,32.71,0,0,1,11.4,2,25.72,25.72,0,0,1,9.25,5.85,26.67,26.67,0,0,1,6.17,9.79,39.12,39.12,0,0,1,2.21,13.77v4.71H234.1V190.84h36a13.12,13.12,0,0,0-1.61-6.55,11.7,11.7,0,0,0-4.44-4.48,13,13,0,0,0-6.58-1.63,13.19,13.19,0,0,0-6.9,1.79,12.84,12.84,0,0,0-4.69,4.79,13.63,13.63,0,0,0-1.73,6.66V201.5a17.17,17.17,0,0,0,1.71,7.92,12.23,12.23,0,0,0,4.85,5.15,14.63,14.63,0,0,0,7.44,1.81,16.18,16.18,0,0,0,5.23-.8,10.85,10.85,0,0,0,4.06-2.41,10.49,10.49,0,0,0,2.57-3.94l15.85,1a21.61,21.61,0,0,1-4.93,10,24.76,24.76,0,0,1-9.57,6.6A36,36,0,0,1,257.91,229.17Z" transform="translate(-59.8 -60.29)"></path><path class="cls-1" d="M310,145.6V228H292.91V145.6Z" transform="translate(-59.8 -60.29)"></path><path class="cls-1" d="M329.77,251.13a34.93,34.93,0,0,1-6.09-.5,23.06,23.06,0,0,1-4.69-1.27l3.86-12.79a21.21,21.21,0,0,0,5.45,1,6.94,6.94,0,0,0,4.22-1.13,8.45,8.45,0,0,0,2.92-4.1l1-2.61-22.16-63.54h18l12.79,45.36h.64l12.91-45.36h18.14l-24,68.45a29.3,29.3,0,0,1-4.69,8.71,19.73,19.73,0,0,1-7.46,5.75A26.31,26.31,0,0,1,329.77,251.13Z" transform="translate(-59.8 -60.29)"></path><path class="cls-1" d="M404.85,229.25a25.85,25.85,0,0,1-24.61-15.4,38.29,38.29,0,0,1-3.38-16.45,37.86,37.86,0,0,1,3.48-16.63,27.31,27.31,0,0,1,9.73-11.3,26.14,26.14,0,0,1,14.62-4.08,27.7,27.7,0,0,1,11.74,2.41,22.48,22.48,0,0,1,8.57,6.76,21.08,21.08,0,0,1,4.14,10.13h-9.49a14.87,14.87,0,0,0-4.81-7.5q-3.72-3.28-10-3.28a16.67,16.67,0,0,0-9.71,2.88,18.83,18.83,0,0,0-6.48,8.08,29.85,29.85,0,0,0-2.31,12.21,31.5,31.5,0,0,0,2.27,12.47,18.88,18.88,0,0,0,6.43,8.24,16.55,16.55,0,0,0,9.79,2.94,16.94,16.94,0,0,0,6.72-1.29,13.85,13.85,0,0,0,5.11-3.7,14.19,14.19,0,0,0,3-5.79h9.49a22,22,0,0,1-4,9.83,22.21,22.21,0,0,1-8.32,6.92A26.78,26.78,0,0,1,404.85,229.25Z" transform="translate(-59.8 -60.29)"></path><path class="cls-1" d="M456.05,229.41a24.9,24.9,0,0,1-10.66-2.23A17.52,17.52,0,0,1,435,210.43a16,16,0,0,1,2.09-8.63,14.82,14.82,0,0,1,5.59-5.21,29.85,29.85,0,0,1,7.74-2.83q4.24-.94,8.55-1.51,5.63-.73,9.15-1.11a14,14,0,0,0,5.15-1.31,3.39,3.39,0,0,0,1.63-3.22v-.32q0-6-3.24-9.25t-9.79-3.3q-6.8,0-10.66,3a17.6,17.6,0,0,0-5.43,6.35l-9-3.22a21.71,21.71,0,0,1,6.46-8.79,24.33,24.33,0,0,1,8.85-4.42,37,37,0,0,1,9.47-1.27,39,39,0,0,1,6.86.7A22.42,22.42,0,0,1,475.9,169a16.85,16.85,0,0,1,6.05,6.56q2.41,4.38,2.41,11.74V228h-9.49V219.6h-.48a16.72,16.72,0,0,1-3.22,4.3,18.55,18.55,0,0,1-6,3.9A23.09,23.09,0,0,1,456.05,229.41Zm1.45-8.53a18.94,18.94,0,0,0,9.51-2.21,15.24,15.24,0,0,0,5.87-5.71,14.66,14.66,0,0,0,2-7.36v-8.69a5.55,5.55,0,0,1-2.63,1.31,40.12,40.12,0,0,1-4.67,1q-2.63.42-5.11.72l-4,.5a36.86,36.86,0,0,0-6.9,1.55,12,12,0,0,0-5.15,3.18,8.12,8.12,0,0,0-2,5.73,8.44,8.44,0,0,0,3.68,7.46A16.22,16.22,0,0,0,457.5,220.89Z" transform="translate(-59.8 -60.29)"></path><path class="cls-1" d="M493.25,228V166.19h9.17v9.33h.64a14.84,14.84,0,0,1,6.11-7.44,18,18,0,0,1,10-2.86q1,0,2.61,0t2.37.12V175q-.48-.12-2.19-.38a23.87,23.87,0,0,0-3.6-.26,16.83,16.83,0,0,0-8,1.87,14.27,14.27,0,0,0-5.55,5.15,13.87,13.87,0,0,0-2,7.46V228Z" transform="translate(-59.8 -60.29)"></path><path class="cls-1" d="M554.5,229.25a28.83,28.83,0,0,1-15.38-4,26.11,26.11,0,0,1-9.93-11.1,37.53,37.53,0,0,1-3.48-16.63,38.33,38.33,0,0,1,3.48-16.75,27.26,27.26,0,0,1,9.73-11.34,26.14,26.14,0,0,1,14.62-4.08,29.31,29.31,0,0,1,9.53,1.61,23.77,23.77,0,0,1,8.57,5.21,25.21,25.21,0,0,1,6.15,9.51,40.46,40.46,0,0,1,2.29,14.56v4H532.46v-8.2h38a20.42,20.42,0,0,0-2.07-9.33,16,16,0,0,0-5.87-6.48,16.55,16.55,0,0,0-8.95-2.37,17,17,0,0,0-9.79,2.79A18.61,18.61,0,0,0,537.4,184a21.27,21.27,0,0,0-2.21,9.57V199a26.19,26.19,0,0,0,2.43,11.84,17.12,17.12,0,0,0,6.78,7.36,19.78,19.78,0,0,0,10.09,2.51,20.35,20.35,0,0,0,6.78-1.07,14.13,14.13,0,0,0,5.25-3.22,14.42,14.42,0,0,0,3.42-5.37l9.17,2.57a20.17,20.17,0,0,1-4.87,8.18,23.36,23.36,0,0,1-8.45,5.47A31,31,0,0,1,554.5,229.25Z" transform="translate(-59.8 -60.29)"></path><path class="cls-2" d="M461.62,60.29H382.56v79.06h0v24l24-24h55.05ZM446.5,124.23H397.68V75.41H446.5Z" transform="translate(-59.8 -60.29)"></path></svg>